<?xml version="1.0" standalone="no"?>
<!DOCTYPE svg PUBLIC "-//W3C//DTD SVG 20010904//EN"
 "http://www.w3.org/TR/2001/REC-SVG-20010904/DTD/svg10.dtd">
<svg version="1.0" xmlns="http://www.w3.org/2000/svg"
 width="720.000000pt" height="720.000000pt" viewBox="0 0 720.000000 720.000000"
 preserveAspectRatio="xMidYMid meet">

<g transform="translate(0.000000,720.000000) scale(0.100000,-0.100000)"
fill="#000000" stroke="none">
<path d="M3675 6694 c-16 -2 -75 -9 -130 -15 -249 -27 -606 -111 -780 -183
-16 -7 -57 -23 -90 -36 -85 -33 -269 -122 -277 -134 -4 -6 -8 -8 -8 -4 0 13
-301 -169 -355 -214 -5 -5 -46 -36 -89 -69 -127 -96 -342 -295 -411 -380 -16
-20 -65 -79 -109 -131 -43 -51 -86 -108 -94 -125 -9 -18 -19 -33 -23 -33 -3 0
-33 -43 -65 -96 -33 -53 -67 -108 -76 -123 -9 -14 -26 -44 -37 -66 -11 -22
-31 -60 -44 -85 -133 -242 -244 -578 -303 -910 -26 -149 -28 -163 -44 -398
-16 -222 9 -601 55 -816 28 -133 82 -333 115 -426 23 -63 45 -126 50 -140 50
-153 227 -481 351 -651 120 -162 148 -199 180 -234 20 -22 54 -59 76 -83 l40
-44 13 34 c24 61 42 103 51 120 12 23 49 121 49 130 0 3 -28 42 -62 86 -96
122 -150 199 -203 287 -26 44 -51 82 -54 85 -6 5 -22 38 -35 70 -3 8 -17 33
-31 55 -13 22 -24 48 -25 57 0 9 -8 24 -17 34 -17 17 -22 30 -82 204 -18 52
-37 104 -42 115 -4 11 -18 56 -29 99 -12 44 -23 83 -25 86 -15 24 -59 274 -80
445 -11 88 -12 497 -3 590 56 526 209 962 487 1380 25 39 48 72 51 75 3 3 17
21 30 40 86 126 364 419 454 480 13 8 30 22 39 31 8 9 62 49 119 90 57 40 105
77 106 81 2 5 8 8 13 8 5 0 37 17 72 39 109 66 229 127 338 171 57 23 118 47
134 55 43 19 112 42 175 59 30 8 96 25 145 39 97 26 163 39 295 57 47 6 99 14
116 16 25 3 34 12 44 37 6 17 18 46 25 62 27 59 65 159 65 172 0 13 -5 13 -65
7z"/>
<path d="M3917 6646 c-14 -30 -28 -65 -32 -78 -7 -25 -22 -62 -36 -91 -5 -9
-37 -90 -70 -180 -34 -89 -70 -181 -80 -204 -10 -23 -19 -46 -19 -52 0 -6 -6
-25 -14 -43 -24 -57 -42 -101 -66 -163 -33 -88 -36 -96 -58 -145 -11 -25 -28
-67 -38 -95 -9 -27 -30 -78 -46 -113 -15 -35 -28 -66 -28 -70 0 -4 -14 -43
-31 -87 -72 -189 -93 -242 -110 -280 -20 -46 -80 -201 -114 -292 -13 -34 -30
-77 -38 -95 -8 -18 -24 -58 -35 -88 -31 -84 -142 -371 -157 -405 -7 -16 -17
-43 -21 -58 -3 -16 -18 -52 -32 -80 -36 -76 -92 -226 -92 -248 0 -10 -4 -19
-9 -19 -5 0 -17 -24 -26 -52 -10 -29 -28 -77 -41 -105 -13 -29 -26 -64 -30
-78 l-6 -25 1285 0 1286 0 -24 63 c-13 34 -33 85 -45 112 -31 73 -34 80 -79
196 -23 59 -41 111 -41 115 0 5 -17 50 -39 99 -21 50 -46 108 -54 130 -8 22
-38 99 -67 170 -28 72 -67 171 -85 220 -63 172 -107 280 -114 285 -5 3 -11 16
-14 30 -17 78 -88 241 -100 233 -6 -4 -8 0 -4 11 4 10 4 23 0 29 -4 7 -8 17
-9 24 -2 13 -59 164 -79 208 -7 17 -34 84 -59 150 -26 66 -53 135 -61 153 -8
18 -15 37 -15 43 0 6 -11 33 -25 61 -14 27 -25 54 -25 60 0 5 -6 24 -14 41 -7
18 -20 50 -29 72 -119 300 -167 425 -167 431 0 4 -9 25 -19 48 -11 23 -32 73
-46 111 -45 120 -89 137 -128 51z m102 -712 c18 -43 37 -90 41 -104 12 -37 61
-168 115 -305 26 -66 60 -156 77 -200 17 -44 60 -156 95 -250 36 -93 91 -240
123 -325 32 -85 93 -245 135 -355 42 -110 80 -211 85 -225 6 -21 23 -63 60
-155 36 -87 71 -196 68 -211 -3 -18 -34 -19 -828 -22 -454 -1 -835 0 -848 3
-25 6 -26 33 -3 90 18 44 56 141 81 210 13 33 36 94 52 135 16 41 38 102 49
135 11 33 26 71 34 85 7 14 20 49 29 79 9 29 19 59 24 65 4 6 14 29 21 51 14
41 58 157 116 305 18 47 54 141 80 210 25 69 52 139 60 155 7 17 29 73 48 125
99 272 146 396 169 447 10 24 18 47 18 53 0 21 43 91 54 87 6 -2 26 -39 45
-83z"/>
<path d="M4211 6657 c5 -20 21 -61 34 -92 14 -30 25 -62 25 -70 0 -8 4 -15 8
-15 4 0 12 -15 17 -32 l10 -33 150 -27 c193 -34 251 -49 440 -115 190 -67 407
-164 465 -210 8 -6 22 -13 30 -15 8 -2 22 -10 31 -18 10 -8 35 -24 56 -35 21
-11 64 -39 95 -62 31 -24 61 -43 67 -43 6 0 11 -4 11 -8 0 -5 11 -14 24 -21
22 -12 27 -10 62 29 22 23 50 56 64 73 14 17 35 42 48 56 l23 25 -38 34 c-47
43 -265 188 -353 235 -143 78 -363 178 -425 194 -11 3 -34 11 -52 19 -47 21
-145 50 -268 79 -60 14 -137 33 -170 40 -58 14 -171 30 -302 42 l-62 6 10 -36z"/>
<path d="M1991 1773 c-13 -32 -32 -78 -43 -103 -26 -57 -126 -302 -145 -355
-8 -22 -32 -80 -53 -130 -50 -116 -110 -267 -110 -277 0 -4 -18 -46 -41 -94
-22 -47 -38 -95 -36 -105 3 -11 1 -17 -4 -13 -5 3 -9 0 -9 -6 0 -6 8 -13 18
-16 9 -3 26 -10 37 -15 46 -22 200 -67 206 -61 4 4 23 50 43 102 21 52 41 104
46 115 5 11 48 119 96 240 47 121 94 238 104 260 11 22 28 67 40 100 24 67 49
117 63 126 12 9 3453 9 3501 1 43 -8 44 -10 80 -102 14 -36 41 -104 61 -150
21 -47 45 -108 55 -136 10 -27 29 -75 43 -105 13 -30 48 -112 76 -184 29 -71
58 -143 65 -160 8 -16 22 -49 32 -72 10 -24 21 -43 25 -43 12 0 195 67 219 80
31 16 25 46 -35 188 -30 72 -55 135 -55 141 0 6 -10 32 -22 58 -52 117 -67
152 -87 208 -12 33 -28 74 -35 90 -8 17 -26 59 -41 95 -14 36 -32 79 -40 95
-7 17 -16 41 -20 54 -16 51 -53 122 -58 109 -3 -7 -6 2 -6 20 -1 19 -8 49 -17
68 l-16 34 -1957 0 -1957 0 -23 -57z"/>
<path d="M5618 1135 c-32 -25 -60 -45 -63 -45 -3 0 -27 -15 -53 -33 -96 -67
-390 -220 -493 -256 -30 -10 -92 -32 -139 -49 -146 -51 -276 -83 -480 -116
-174 -29 -234 -33 -430 -34 -211 0 -334 9 -475 33 -49 9 -117 21 -150 26 -333
57 -702 205 -1003 402 -15 9 -35 20 -44 23 -10 4 -18 10 -18 15 0 5 -6 9 -14
9 -8 0 -17 6 -20 13 -9 21 -34 -21 -76 -129 -22 -56 -40 -107 -40 -113 0 -19
241 -164 380 -227 30 -14 63 -30 73 -35 36 -19 200 -82 352 -134 137 -47 387
-100 615 -131 151 -21 625 -23 760 -4 47 6 103 14 125 16 368 44 830 210 1155
415 188 119 210 135 216 151 3 10 -8 46 -24 80 -16 35 -38 86 -50 113 -11 28
-26 51 -34 53 -7 1 -39 -18 -70 -43z"/>
</g>
</svg>
