<?xml version="1.0" encoding="UTF-8" standalone="no"?>
<!-- Created with Inkscape (http://www.inkscape.org/) -->

<svg
   width="2320"
   height="1122.52"
   viewBox="0 0 613.83333 297.00009"
   version="1.1"
   id="svg1"
   xml:space="preserve"
   inkscape:version="1.4.3 (0d15f75, 2025-12-25)"
   sodipodi:docname="logoNomeInvert.svg"
   xmlns:inkscape="http://www.inkscape.org/namespaces/inkscape"
   xmlns:sodipodi="http://sodipodi.sourceforge.net/DTD/sodipodi-0.dtd"
   xmlns:xlink="http://www.w3.org/1999/xlink"
   xmlns="http://www.w3.org/2000/svg"
   xmlns:svg="http://www.w3.org/2000/svg"><sodipodi:namedview
     id="namedview1"
     pagecolor="#ffffff"
     bordercolor="#000000"
     borderopacity="0"
     inkscape:showpageshadow="2"
     inkscape:pageopacity="0.0"
     inkscape:pagecheckerboard="0"
     inkscape:deskcolor="#d1d1d1"
     inkscape:document-units="mm"
     inkscape:zoom="0.35945917"
     inkscape:cx="742.78254"
     inkscape:cy="593.94784"
     inkscape:window-width="1920"
     inkscape:window-height="1009"
     inkscape:window-x="-8"
     inkscape:window-y="-8"
     inkscape:window-maximized="1"
     inkscape:current-layer="layer1" /><defs
     id="defs1"><linearGradient
       id="swatch1"
       inkscape:swatch="solid"><stop
         style="stop-color:#ffffff;stop-opacity:1;"
         offset="0"
         id="stop1" /></linearGradient><linearGradient
       inkscape:collect="always"
       xlink:href="#swatch1"
       id="linearGradient1"
       x1="59.286288"
       y1="5376.5099"
       x2="18990.369"
       y2="5376.5099"
       gradientUnits="userSpaceOnUse" /></defs><g
     inkscape:label="Camada 1"
     inkscape:groupmode="layer"
     id="layer1"><g
       transform="matrix(0.03218329,0,0,-0.03218329,-0.13438909,321.61914)"
       fill="#000000"
       stroke="none"
       id="g6"
       style="fill:url(#linearGradient1);fill-opacity:1;stroke:#000000;stroke-opacity:1"><path
         d="m 4405,9898 c -49,-5 -110,-14 -135,-20 -25,-6 -61,-13 -80,-16 -19,-2 -41,-9 -47,-14 -7,-6 -39,-14 -70,-18 -57,-8 -131,-30 -165,-50 -10,-6 -32,-10 -50,-10 -18,0 -42,-7 -52,-15 -11,-8 -32,-15 -47,-15 -14,0 -32,-7 -39,-15 -7,-8 -21,-15 -31,-15 -10,0 -22,-6 -26,-14 -10,-17 -67,-46 -91,-46 -11,0 -25,-7 -32,-15 -7,-8 -20,-15 -30,-15 -10,0 -23,-7 -30,-15 -7,-8 -17,-15 -23,-15 -18,0 -97,-41 -97,-51 0,-5 -11,-9 -24,-9 -13,0 -26,-7 -30,-15 -3,-8 -14,-15 -25,-15 -11,0 -22,-4 -25,-9 -3,-5 -23,-18 -43,-29 -95,-50 -108,-58 -116,-69 -4,-7 -15,-13 -23,-13 -8,0 -33,-13 -56,-30 -22,-16 -47,-30 -55,-30 -7,0 -13,-4 -13,-9 0,-5 -18,-19 -41,-30 -22,-12 -52,-33 -67,-46 -15,-14 -36,-28 -47,-32 -11,-3 -30,-16 -42,-29 -12,-13 -26,-24 -31,-24 -11,0 -178,-125 -207,-155 -11,-11 -38,-32 -60,-47 -22,-14 -62,-48 -90,-75 -27,-27 -86,-80 -130,-117 -130,-112 -531,-512 -743,-741 -66,-71 -147,-159 -181,-194 -34,-34 -61,-66 -61,-70 0,-4 -37,-43 -83,-88 -46,-44 -110,-119 -141,-167 -32,-47 -62,-86 -66,-86 -4,0 -10,-10 -14,-23 -3,-13 -40,-58 -82,-102 -42,-43 -88,-97 -103,-119 -14,-23 -28,-43 -31,-46 -4,-3 -17,-23 -30,-45 -13,-22 -27,-42 -30,-45 -3,-3 -17,-23 -30,-45 -13,-22 -28,-44 -32,-50 -82,-106 -142,-204 -231,-375 -77,-148 -81,-157 -103,-207 -10,-24 -21,-43 -25,-43 -3,0 -9,-15 -13,-32 -3,-18 -17,-55 -30,-83 -42,-89 -56,-125 -56,-142 0,-21 -41,-145 -52,-157 -4,-6 -8,-36 -8,-68 0,-32 -7,-75 -15,-95 -17,-41 -22,-338 -6,-348 6,-3 13,-27 16,-53 6,-40 31,-99 94,-219 16,-31 242,-263 256,-263 5,0 39,-20 76,-45 37,-25 74,-45 82,-45 8,0 20,-7 27,-15 7,-8 25,-15 39,-15 15,0 36,-7 47,-15 10,-8 39,-15 64,-15 25,0 73,-7 107,-15 54,-13 71,-13 138,0 42,8 98,15 124,15 26,0 52,5 57,10 6,6 35,13 65,17 30,3 66,12 81,19 15,8 40,14 55,14 15,0 37,7 47,15 11,8 32,15 47,15 15,0 31,5 34,10 3,6 14,10 23,10 9,0 30,7 45,15 15,8 43,17 62,21 19,3 39,12 46,20 6,8 17,14 24,14 8,0 26,6 42,14 108,52 162,76 175,76 9,0 21,7 28,15 7,8 17,15 23,15 13,0 74,30 142,71 28,16 62,35 78,40 15,6 27,15 27,19 0,4 12,13 28,19 15,6 50,25 77,41 28,17 62,36 78,41 15,6 27,15 27,19 0,5 10,12 23,15 12,4 36,18 54,31 17,13 35,24 39,24 4,0 17,9 28,19 12,11 35,27 51,38 17,10 46,27 64,38 18,11 52,35 76,53 24,17 47,32 50,32 4,0 24,14 45,30 21,17 42,30 47,30 5,0 23,13 41,30 18,16 39,30 46,30 7,0 21,9 32,21 17,19 130,100 176,126 11,6 23,15 27,20 3,5 20,19 36,31 17,12 41,31 55,43 85,69 113,89 125,89 8,0 18,6 22,13 9,15 88,77 97,77 6,0 78,58 195,159 30,25 75,62 100,81 25,19 62,49 81,66 19,18 52,44 73,59 22,14 59,44 83,67 41,38 80,67 179,134 22,15 59,45 83,66 50,46 72,40 72,-21 1,-81 37,-233 67,-276 7,-11 13,-27 13,-36 0,-9 7,-22 15,-29 8,-7 15,-21 15,-31 0,-10 30,-48 66,-86 l 67,-68 81,1 c 64,1 90,6 121,23 61,33 79,45 90,57 5,7 33,28 60,49 63,46 286,264 303,296 7,13 42,55 77,92 36,37 65,71 65,76 0,5 7,15 16,22 9,8 27,30 39,50 13,20 29,42 37,50 7,8 24,31 38,51 14,21 28,38 31,38 3,0 23,28 43,63 21,34 42,69 47,77 5,8 12,23 15,33 4,9 10,17 14,17 4,0 12,10 19,23 6,12 20,36 31,52 36,56 60,104 60,123 0,21 39,62 61,62 8,0 41,14 74,30 33,16 72,30 86,30 15,0 32,7 39,16 8,8 25,14 39,12 21,-2 25,-8 23,-27 -2,-14 -12,-41 -23,-60 -10,-20 -19,-41 -19,-48 0,-7 -4,-13 -8,-13 -12,0 -42,-56 -42,-80 0,-12 -6,-34 -14,-48 -7,-15 -23,-48 -35,-74 -12,-26 -26,-50 -32,-53 -5,-4 -9,-15 -9,-26 0,-18 -38,-109 -79,-189 -9,-19 -23,-55 -30,-80 -7,-25 -19,-60 -27,-78 -8,-18 -14,-43 -14,-55 0,-12 -7,-31 -15,-41 -8,-11 -15,-31 -15,-45 -1,-14 -7,-37 -15,-51 -19,-34 -19,-114 0,-130 8,-7 15,-20 15,-29 0,-24 100,-118 133,-127 24,-5 33,-1 67,36 22,24 40,51 40,61 0,10 6,22 13,26 8,4 30,32 51,61 41,59 73,98 99,121 9,8 17,21 17,28 0,6 8,18 18,25 21,15 143,155 222,253 30,38 83,97 118,131 34,34 62,66 62,71 0,6 26,34 58,64 31,30 77,79 102,109 25,30 55,66 67,80 13,14 23,27 23,30 0,10 60,41 69,36 12,-8 1,-97 -15,-121 -8,-11 -14,-31 -14,-46 0,-15 -7,-43 -15,-62 -8,-20 -15,-47 -15,-61 0,-13 -6,-37 -14,-53 -18,-34 -36,-256 -25,-298 5,-16 11,-60 14,-97 5,-52 14,-78 38,-115 74,-111 166,-197 230,-213 18,-5 46,-14 63,-21 27,-11 37,-10 67,4 19,9 39,17 44,17 21,0 295,286 353,368 31,43 56,60 69,47 6,-6 17,-41 24,-78 19,-86 82,-182 179,-268 39,-35 79,-72 89,-81 11,-10 25,-18 33,-18 7,0 19,-7 26,-15 7,-8 21,-15 31,-15 9,0 25,-7 34,-16 23,-24 199,-25 246,-2 19,9 48,22 66,28 18,7 65,34 105,61 40,27 79,49 86,49 6,0 12,4 12,9 0,6 18,21 40,34 21,13 56,39 77,58 21,19 51,43 68,53 16,11 50,38 75,61 25,22 65,54 89,70 53,36 375,354 480,475 41,47 118,130 171,186 98,102 118,135 96,153 -9,8 -37,-15 -105,-84 -51,-53 -114,-110 -140,-127 -25,-18 -70,-55 -99,-82 -30,-28 -63,-55 -75,-59 -12,-4 -24,-11 -27,-15 -11,-16 -88,-72 -98,-72 -6,0 -15,-6 -19,-13 -7,-12 -67,-59 -104,-82 -29,-18 -134,-90 -139,-95 -15,-15 -199,-140 -206,-140 -3,0 -23,-13 -44,-30 -21,-16 -45,-30 -53,-30 -8,0 -20,-7 -27,-15 -7,-8 -17,-15 -22,-15 -6,0 -27,-13 -48,-30 -21,-16 -43,-30 -50,-30 -7,0 -25,-7 -41,-15 -16,-8 -42,-22 -58,-30 -16,-8 -36,-15 -44,-15 -8,0 -28,-7 -43,-15 -17,-8 -55,-15 -90,-15 -51,0 -64,4 -83,24 -20,21 -22,34 -23,137 -1,88 3,123 16,154 31,70 43,98 75,166 17,36 31,69 31,73 0,16 45,66 59,66 9,0 34,-21 56,-46 67,-79 109,-104 175,-104 39,0 62,5 70,15 7,8 19,15 27,15 8,0 32,14 53,30 21,17 41,30 45,30 8,0 124,87 149,113 10,10 40,32 67,49 27,16 49,33 49,38 0,4 11,18 26,31 14,13 46,51 71,84 25,33 51,65 57,70 7,6 23,28 36,50 13,22 30,45 36,50 33,27 117,200 138,282 15,60 15,63 -9,116 -38,87 -111,162 -185,192 -8,3 -28,13 -43,21 -16,7 -34,14 -40,14 -6,0 -19,8 -29,17 -15,13 -40,16 -126,17 -103,1 -109,-1 -167,-33 -33,-18 -67,-40 -76,-47 -8,-8 -23,-14 -31,-14 -9,0 -21,-7 -28,-15 -7,-8 -16,-15 -21,-15 -5,0 -28,-13 -51,-30 -22,-17 -45,-30 -50,-30 -13,0 -32,-16 -127,-110 -116,-115 -231,-238 -231,-247 0,-5 -11,-20 -23,-33 -13,-14 -41,-50 -62,-80 -21,-30 -49,-66 -62,-80 -12,-13 -23,-30 -23,-35 0,-6 -20,-42 -45,-79 -25,-38 -45,-73 -45,-78 0,-13 -150,-171 -248,-260 -29,-26 -52,-50 -52,-54 0,-5 -43,-52 -188,-203 -24,-25 -48,-53 -53,-63 -5,-10 -17,-18 -25,-18 -9,0 -39,-20 -67,-45 -58,-50 -99,-59 -117,-25 -12,22 3,88 27,125 7,11 13,27 13,36 0,9 7,22 15,29 8,7 15,20 15,29 0,9 7,29 15,45 8,15 15,34 15,41 0,8 7,26 15,42 30,57 75,172 75,191 0,11 7,25 15,32 8,7 15,19 15,27 0,9 13,41 29,72 32,61 91,188 91,196 0,3 20,39 45,79 25,41 45,79 45,84 0,5 7,15 15,22 8,7 15,22 15,34 0,12 5,27 12,34 6,6 13,46 16,89 5,99 -16,150 -90,218 -51,47 -55,49 -114,49 -45,0 -66,-5 -79,-17 -9,-9 -22,-17 -28,-17 -7,0 -55,-43 -107,-95 -52,-53 -133,-133 -178,-178 -46,-45 -90,-93 -97,-107 -7,-14 -43,-54 -80,-90 -108,-106 -152,-153 -183,-195 -33,-44 -78,-88 -134,-130 -31,-22 -38,-24 -38,-11 0,18 48,122 80,171 10,17 28,50 40,75 26,54 23,49 84,139 52,76 53,84 28,186 -15,61 -36,95 -94,150 -58,55 -89,75 -114,75 -25,0 -82,-46 -89,-72 -4,-13 -19,-34 -34,-48 -14,-14 -37,-41 -51,-60 -48,-68 -74,-90 -147,-125 -41,-19 -78,-35 -82,-35 -5,0 -14,-7 -21,-15 -7,-8 -25,-15 -39,-15 -15,0 -36,-7 -47,-15 -10,-8 -33,-15 -50,-15 -37,0 -44,15 -44,97 0,28 -4,54 -9,58 -5,3 -12,19 -16,36 -9,39 -111,148 -162,172 -21,10 -51,25 -66,33 -16,8 -50,14 -75,14 -26,0 -65,5 -87,11 -22,6 -112,12 -200,15 -162,4 -228,-3 -359,-42 -26,-8 -53,-14 -58,-14 -6,0 -30,-13 -55,-30 -24,-16 -48,-30 -53,-30 -4,0 -39,-20 -77,-45 -37,-25 -72,-45 -77,-45 -9,0 -166,-158 -166,-167 0,-3 -13,-22 -30,-43 -16,-21 -30,-41 -30,-44 0,-3 -13,-28 -30,-54 -25,-42 -30,-59 -30,-115 0,-101 30,-169 97,-218 60,-45 67,-70 33,-125 -24,-38 -178,-184 -194,-184 -6,0 -23,-14 -38,-30 -15,-17 -49,-45 -76,-64 -28,-18 -63,-45 -78,-60 -16,-14 -36,-26 -46,-26 -9,0 -21,-6 -25,-14 -4,-7 -30,-28 -58,-46 -27,-18 -54,-38 -60,-45 -5,-6 -36,-28 -67,-49 -32,-21 -58,-42 -58,-47 0,-5 -5,-9 -10,-9 -6,0 -29,-12 -53,-27 -23,-15 -49,-32 -59,-38 -62,-38 -148,-101 -148,-107 0,-4 -5,-8 -11,-8 -6,0 -31,-13 -56,-30 -24,-16 -50,-30 -58,-30 -7,0 -15,-4 -17,-8 -4,-11 -95,-75 -138,-97 -18,-9 -38,-21 -44,-27 -17,-14 -117,-78 -123,-78 -3,0 -22,-12 -42,-27 -43,-33 -62,-45 -118,-74 -24,-13 -43,-26 -43,-30 0,-4 -12,-10 -26,-13 -14,-4 -35,-16 -47,-27 -12,-12 -34,-26 -49,-31 -16,-6 -28,-14 -28,-19 0,-5 -9,-9 -19,-9 -11,0 -26,-7 -35,-15 -8,-8 -21,-15 -29,-15 -8,0 -30,-13 -48,-30 -19,-16 -39,-30 -46,-30 -6,0 -18,-6 -25,-13 -12,-11 -43,-29 -130,-74 -16,-8 -28,-19 -28,-24 0,-5 -8,-9 -19,-9 -10,0 -24,-7 -31,-15 -7,-8 -21,-15 -31,-15 -9,0 -24,-6 -31,-13 -25,-24 -68,-47 -87,-47 -11,0 -22,-4 -25,-9 -5,-8 -52,-32 -106,-55 -8,-3 -28,-15 -45,-26 -16,-11 -37,-22 -45,-26 -51,-20 -109,-50 -137,-70 -17,-13 -40,-24 -50,-24 -11,0 -28,-7 -39,-15 -10,-8 -29,-15 -42,-15 -12,0 -25,-7 -28,-15 -4,-8 -17,-15 -30,-15 -14,0 -27,-7 -30,-15 -4,-8 -18,-15 -33,-15 -15,0 -36,-7 -47,-15 -10,-8 -26,-15 -35,-15 -9,0 -22,-7 -29,-15 -7,-8 -22,-15 -34,-15 -11,0 -30,-7 -40,-15 -11,-8 -29,-15 -40,-15 -12,0 -30,-7 -40,-15 -11,-8 -31,-15 -45,-15 -14,0 -35,-7 -45,-15 -11,-8 -32,-15 -47,-15 -15,0 -40,-7 -55,-15 -16,-8 -41,-15 -55,-15 -15,0 -43,-7 -62,-15 -20,-8 -54,-15 -76,-15 -22,0 -72,-7 -112,-15 -71,-15 -164,-12 -175,6 -3,5 -15,9 -27,9 -28,0 -117,85 -137,131 -21,51 -26,256 -6,304 9,21 16,46 16,57 0,24 43,151 80,233 7,17 19,46 27,65 32,75 55,119 106,198 15,24 27,49 27,56 0,8 7,19 15,26 8,7 15,20 15,30 0,10 7,23 15,30 8,7 15,19 15,26 0,15 85,160 107,182 7,7 13,20 13,28 0,8 5,20 10,27 40,48 50,61 50,72 0,6 14,24 30,40 17,16 30,34 30,39 0,6 16,29 35,51 20,21 47,64 62,95 14,30 29,57 32,60 4,3 18,23 31,45 13,22 39,56 56,75 18,19 47,58 66,85 46,68 82,119 89,125 3,3 18,31 34,62 16,32 40,70 53,85 13,16 48,60 77,98 29,39 67,85 84,103 17,18 31,37 31,41 0,4 40,49 89,100 92,96 151,172 151,195 0,7 20,34 45,60 25,27 45,50 45,53 0,7 90,112 152,178 52,56 88,100 88,109 0,3 15,20 32,39 18,18 83,86 143,152 256,277 517,542 601,610 27,22 74,65 106,95 73,71 178,164 192,170 6,3 24,16 40,30 60,53 76,66 110,90 20,14 53,40 74,58 33,30 85,67 134,97 9,5 51,34 93,63 41,28 80,52 84,52 5,0 22,6 38,14 15,8 44,22 64,32 21,10 51,30 69,46 18,15 41,28 51,28 11,0 19,4 19,10 0,5 18,13 40,16 22,4 45,13 51,20 6,8 24,14 40,14 15,0 30,4 33,9 4,5 24,12 47,16 22,4 53,13 67,21 15,8 55,14 89,14 34,0 65,5 68,10 10,16 105,12 155,-7 59,-21 108,-68 120,-115 6,-20 15,-40 20,-43 17,-10 12,-275 -5,-309 -8,-15 -15,-44 -15,-62 0,-22 -6,-37 -15,-40 -8,-4 -15,-16 -15,-29 0,-12 -7,-28 -15,-35 -8,-7 -15,-22 -15,-34 0,-12 -7,-31 -15,-42 -8,-10 -15,-24 -15,-31 0,-22 -90,-143 -148,-201 -31,-32 -79,-82 -105,-112 -44,-50 -73,-74 -178,-146 -39,-27 -109,-44 -109,-26 0,16 66,107 104,144 32,31 60,98 41,98 -9,0 -78,-41 -85,-50 -3,-4 -30,-24 -60,-45 -30,-21 -61,-45 -68,-52 -8,-7 -28,-21 -45,-29 -16,-9 -42,-27 -56,-40 -14,-13 -29,-24 -34,-24 -9,0 -135,-95 -159,-121 -28,-29 -33,-90 -11,-130 57,-105 104,-158 166,-187 43,-21 61,-24 123,-20 49,3 78,10 89,21 9,10 23,17 31,17 25,0 132,84 265,207 47,43 89,98 89,115 0,8 9,23 20,33 11,10 20,23 20,28 0,6 18,34 40,63 22,29 40,56 40,60 0,4 6,15 14,23 7,9 31,48 51,86 21,39 42,72 47,73 4,2 8,13 8,24 0,11 13,39 29,63 16,24 32,57 36,74 3,17 11,33 16,36 5,4 9,17 9,29 0,13 7,29 15,36 8,7 15,25 15,41 0,15 7,34 15,43 8,8 15,32 15,56 0,22 7,57 15,77 20,47 20,218 0,253 -8,14 -14,33 -15,44 0,10 -13,37 -28,60 -15,22 -31,49 -35,59 -3,9 -18,22 -32,27 -14,5 -25,14 -25,20 0,5 -8,10 -19,10 -10,0 -24,7 -31,15 -7,8 -22,15 -34,15 -12,0 -27,5 -34,12 -26,26 -168,38 -307,26 z M 5625,7869 c 5,-5 19,-9 30,-9 12,0 32,-12 46,-26 22,-24 24,-32 21,-127 -1,-80 -7,-112 -24,-149 -12,-27 -25,-48 -30,-48 -4,0 -8,-6 -8,-12 -2,-39 -133,-107 -208,-108 -19,0 -63,-13 -99,-30 -35,-16 -76,-30 -89,-30 -14,0 -39,-7 -55,-16 -17,-8 -40,-14 -52,-12 -27,4 -34,39 -13,61 9,9 16,20 16,25 0,10 113,137 145,163 11,9 24,17 30,17 16,1 22,35 14,72 -5,19 -9,74 -9,121 0,81 2,88 24,102 37,25 235,29 261,6 z m 3633,-31 c 17,-17 15,-63 -4,-101 -30,-58 -262,-294 -328,-334 -33,-20 -90,-57 -125,-81 -129,-88 -266,-139 -346,-130 -81,9 2,131 168,250 59,42 122,88 140,102 18,14 49,39 71,55 21,17 42,31 45,31 3,0 26,18 49,40 24,22 49,40 55,40 7,0 48,23 92,51 140,90 161,99 183,77 z m -4368,-92 c 0,-7 -7,-19 -15,-26 -8,-6 -26,-33 -41,-58 -15,-26 -53,-81 -85,-123 -64,-85 -111,-166 -129,-221 -14,-45 -33,-48 -72,-14 -26,21 -28,29 -28,93 0,38 3,73 7,77 4,4 12,20 18,36 11,32 90,119 152,167 83,66 193,105 193,69 z m 590,-550 c 0,-2 -13,-20 -30,-41 -16,-21 -30,-41 -30,-46 0,-17 -67,-104 -122,-161 -32,-32 -58,-63 -58,-68 0,-13 -156,-168 -226,-225 -94,-77 -124,-97 -161,-105 -59,-14 -73,0 -73,70 0,33 4,68 9,78 25,49 51,110 51,120 0,6 6,23 14,39 8,15 29,61 47,101 18,40 43,82 56,94 28,26 97,51 188,68 72,12 183,43 245,66 32,12 90,19 90,10 z"
         id="path1"
         style="fill:url(#linearGradient1);fill-opacity:1;stroke:#000000;stroke-opacity:1" /><path
         d="m 12100,8830 c -8,-5 -25,-10 -37,-10 -19,0 -160,-65 -173,-79 -3,-3 -22,-15 -43,-25 -39,-20 -77,-70 -77,-102 0,-11 -7,-28 -15,-38 -9,-12 -15,-42 -15,-76 0,-47 4,-60 24,-79 14,-13 28,-21 33,-18 5,3 24,28 43,56 21,30 57,64 92,86 31,20 58,40 60,44 2,4 23,22 47,39 61,44 125,45 166,2 16,-16 32,-30 36,-30 13,0 127,-71 151,-94 13,-13 48,-36 78,-52 30,-15 66,-36 79,-46 13,-10 34,-18 47,-18 12,0 24,-5 26,-12 3,-8 32,-14 80,-16 71,-4 79,-2 144,33 38,20 84,53 102,73 18,20 44,49 57,63 17,19 28,49 38,109 14,79 14,85 -5,119 -11,20 -24,40 -28,45 -8,8 -95,-37 -115,-60 -21,-23 -117,-74 -158,-84 -61,-14 -173,-12 -210,4 -18,7 -41,23 -52,36 -36,41 -116,86 -233,131 -30,12 -123,11 -142,-1 z"
         id="path2"
         style="fill:url(#linearGradient1);fill-opacity:1;stroke:#000000;stroke-opacity:1" /><path
         d="m 14045,8150 c -126,-18 -151,-24 -170,-36 -11,-8 -29,-14 -41,-14 -12,0 -27,-7 -34,-15 -7,-8 -20,-15 -30,-15 -10,0 -23,-7 -30,-15 -7,-8 -19,-15 -27,-15 -19,0 -111,-61 -143,-95 -13,-14 -29,-25 -35,-25 -29,0 -215,-210 -215,-243 0,-7 -4,-17 -8,-22 -34,-39 -58,-183 -34,-207 7,-7 12,-22 12,-34 0,-12 16,-39 35,-58 19,-20 35,-40 35,-45 0,-11 -35,-55 -99,-123 -29,-32 -63,-70 -75,-85 -26,-35 -73,-83 -284,-297 -169,-171 -220,-216 -240,-216 -17,0 -15,32 3,56 8,10 15,27 15,37 0,9 4,25 9,35 6,9 27,55 47,102 20,47 40,87 44,90 11,8 38,68 45,99 3,16 13,35 21,42 8,6 14,17 14,24 0,8 3,15 8,17 4,2 28,46 54,98 26,52 67,129 90,170 55,98 71,173 52,237 -8,26 -19,52 -24,57 -6,6 -10,18 -10,28 0,30 -120,147 -157,154 -28,6 -38,1 -68,-29 -20,-20 -41,-34 -48,-31 -12,4 -48,106 -47,135 0,9 -9,26 -20,39 -11,13 -20,28 -20,34 0,21 -51,67 -103,91 -60,29 -147,33 -204,10 -19,-8 -44,-15 -54,-15 -33,0 -250,-104 -308,-148 -39,-29 -68,-48 -89,-58 -7,-4 -38,-31 -68,-60 -30,-30 -79,-72 -109,-95 -30,-22 -87,-81 -127,-130 -84,-104 -218,-296 -218,-313 0,-7 -4,-16 -10,-22 -14,-14 -110,-205 -110,-219 0,-7 -7,-18 -15,-25 -8,-7 -15,-19 -15,-27 0,-8 -6,-29 -14,-46 -8,-18 -23,-53 -35,-80 -11,-27 -30,-51 -43,-57 -23,-10 -34,-16 -73,-38 -11,-7 -27,-15 -35,-18 -8,-3 -28,-11 -45,-18 -42,-18 -119,-36 -157,-36 -113,0 -241,52 -314,128 -64,65 -114,127 -114,139 0,6 -7,16 -15,23 -8,7 -15,20 -15,30 0,10 -7,23 -15,30 -8,7 -15,20 -15,30 0,10 -7,23 -15,30 -8,7 -15,21 -15,31 0,10 -7,34 -17,53 -14,30 -14,39 -2,67 15,37 471,496 534,538 21,14 60,45 85,68 25,24 49,43 53,43 5,0 36,20 68,45 33,25 63,45 68,45 5,0 11,6 14,13 3,8 35,28 71,45 62,30 88,62 50,62 -28,0 -151,-68 -209,-114 -31,-26 -62,-46 -70,-46 -8,0 -15,-4 -15,-9 0,-5 -15,-19 -32,-30 -18,-11 -46,-32 -62,-46 -16,-14 -34,-25 -40,-25 -6,0 -26,-14 -45,-30 -18,-17 -37,-30 -41,-30 -5,0 -42,-24 -84,-52 -42,-29 -86,-58 -97,-64 -11,-6 -31,-21 -45,-33 -13,-11 -28,-21 -32,-21 -5,0 -26,-13 -48,-30 -21,-16 -44,-30 -50,-30 -5,0 -23,-14 -39,-30 -53,-55 -120,-77 -131,-42 -3,9 -12,29 -20,44 -8,14 -14,46 -14,70 -1,23 -7,54 -15,68 -9,15 -14,54 -15,100 0,41 -5,91 -10,110 -6,19 -13,64 -15,99 -5,69 -8,77 -24,66 -8,-4 -11,-114 -11,-338 0,-374 4,-356 -77,-403 -27,-15 -50,-30 -53,-33 -6,-7 -39,-28 -57,-37 -7,-3 -33,-26 -57,-50 -24,-24 -58,-52 -75,-62 -17,-10 -53,-38 -81,-63 -70,-62 -117,-99 -124,-99 -15,0 -277,-276 -296,-313 -24,-45 -32,-158 -12,-165 6,-2 20,-22 32,-45 12,-23 39,-57 61,-76 32,-27 49,-34 82,-34 38,0 48,6 108,64 36,35 87,93 114,129 55,73 69,90 108,130 15,15 27,32 27,37 0,4 19,28 43,53 23,26 58,66 78,90 43,53 64,75 151,157 72,69 102,75 113,22 4,-16 11,-31 16,-34 5,-4 9,-18 9,-33 1,-15 12,-45 25,-67 14,-22 27,-47 31,-55 3,-8 10,-22 15,-30 5,-8 21,-40 36,-70 16,-30 31,-56 36,-58 4,-2 7,-9 7,-16 0,-24 99,-162 152,-213 74,-70 143,-103 211,-103 36,0 59,5 67,15 7,8 23,15 36,15 12,0 25,4 28,9 3,5 18,12 32,15 15,4 41,18 59,32 17,13 37,24 42,24 6,0 50,30 98,66 106,80 127,82 162,13 13,-27 56,-77 99,-118 73,-68 78,-71 125,-71 48,0 101,24 141,64 9,8 33,27 54,41 22,15 118,104 214,198 97,95 227,217 289,272 120,104 137,120 221,198 28,26 60,47 70,47 18,0 18,-2 -2,-47 -11,-27 -37,-73 -56,-103 -82,-126 -104,-191 -100,-291 5,-90 12,-118 61,-219 34,-70 60,-98 122,-138 53,-33 162,-37 221,-7 44,23 287,261 356,351 25,32 79,88 118,124 92,83 87,78 139,144 64,81 89,74 65,-19 -19,-69 -18,-196 1,-221 8,-10 15,-33 15,-50 0,-16 7,-39 15,-50 8,-10 15,-31 15,-45 0,-15 7,-32 15,-39 8,-7 15,-19 15,-26 0,-59 130,-206 199,-224 48,-13 133,1 162,26 8,8 33,24 56,36 63,36 180,134 276,232 48,50 87,94 87,98 0,4 22,32 49,62 28,30 58,68 68,83 10,15 33,45 52,65 18,20 49,61 68,90 19,29 41,57 49,61 8,4 14,14 14,21 0,8 7,20 16,27 24,20 134,166 134,178 0,5 14,30 30,54 17,25 30,53 30,63 1,11 7,30 15,44 8,14 14,35 15,47 0,25 69,103 92,103 9,0 43,14 76,30 34,17 67,30 75,30 8,0 20,7 27,15 7,8 20,15 30,15 10,0 23,7 30,15 7,8 20,15 30,15 10,0 23,7 30,15 7,8 19,15 27,15 8,0 32,13 52,28 20,16 44,32 54,35 16,6 25,47 10,47 -19,-2 -103,-26 -109,-33 -4,-4 -29,-10 -56,-13 -26,-4 -48,-10 -48,-15 0,-4 -17,-11 -37,-14 -21,-3 -53,-13 -71,-21 -43,-18 -87,-18 -106,2 -12,11 -16,36 -16,93 0,52 -5,83 -15,97 -8,10 -15,26 -15,34 -1,33 -133,150 -170,150 -10,0 -23,7 -30,15 -7,9 -29,15 -55,15 -23,0 -62,7 -85,15 -32,11 -84,15 -214,14 -94,-1 -193,-5 -221,-9 z m 500,-130 c 3,-5 15,-10 25,-10 10,0 30,-15 45,-32 26,-31 27,-37 22,-113 -7,-114 -49,-232 -98,-272 -13,-11 -78,-33 -199,-69 -30,-9 -68,-21 -85,-26 -125,-39 -219,-56 -229,-40 -6,10 33,72 45,72 5,0 9,6 9,13 0,7 33,45 73,84 90,88 109,136 106,272 -1,49 2,94 5,100 4,6 35,11 69,12 34,1 73,5 87,9 36,12 118,12 125,0 z m -770,-130 c 6,-9 -28,-59 -112,-162 -28,-35 -62,-96 -87,-156 -23,-55 -49,-106 -58,-115 -21,-21 -57,-22 -86,-1 -19,13 -22,24 -22,87 0,67 3,76 39,131 22,33 59,72 83,87 24,16 50,35 58,43 8,8 27,20 43,27 15,7 27,16 27,21 0,4 5,8 11,8 6,0 22,9 36,20 27,21 58,26 68,10 z m -1221,-250 c 36,-13 59,-53 51,-89 -6,-30 -121,-161 -141,-161 -11,0 -22,-8 -171,-132 -51,-43 -98,-78 -103,-78 -6,0 -18,-7 -27,-16 -50,-44 -89,-74 -98,-74 -5,0 -23,-14 -39,-30 -16,-17 -33,-30 -37,-30 -12,0 -162,-106 -183,-129 -11,-12 -27,-21 -37,-21 -10,0 -22,-6 -26,-12 -10,-16 -45,-36 -94,-53 -37,-14 -39,-13 -45,9 -4,17 8,43 48,100 29,42 58,85 63,95 6,9 37,48 70,86 33,38 65,76 70,85 17,24 306,310 314,310 5,0 46,25 91,55 45,30 89,55 97,55 8,0 29,6 46,14 57,26 110,32 151,16 z m 1796,-317 c 0,-15 -46,-102 -60,-113 -3,-3 -21,-27 -39,-54 -61,-92 -288,-336 -312,-336 -6,0 -24,-13 -42,-30 -18,-16 -48,-37 -67,-46 -19,-9 -42,-23 -52,-31 -9,-8 -30,-13 -50,-11 -32,3 -33,4 -36,55 -2,33 3,63 12,82 9,17 16,37 16,46 0,9 29,76 65,150 76,159 131,225 185,225 31,0 104,17 175,42 41,14 144,35 178,37 19,1 27,-4 27,-16 z"
         id="path3"
         style="fill:url(#linearGradient1);fill-opacity:1;stroke:#000000;stroke-opacity:1" /><path
         d="m 8808,6138 c -77,-79 -151,-160 -164,-180 -13,-21 -51,-66 -84,-102 -33,-35 -77,-85 -97,-112 -21,-27 -42,-54 -48,-60 -51,-55 -101,-111 -160,-179 -38,-44 -90,-102 -116,-130 -26,-27 -63,-70 -83,-95 -20,-25 -56,-67 -80,-95 -25,-27 -86,-99 -137,-160 -51,-60 -99,-114 -106,-118 -7,-4 -13,-13 -13,-18 0,-6 -29,-44 -65,-85 -36,-41 -65,-78 -65,-83 0,-4 -15,-24 -32,-43 -18,-19 -54,-59 -80,-89 -25,-30 -79,-92 -120,-138 -40,-46 -91,-107 -112,-135 -21,-28 -42,-53 -46,-56 -4,-3 -37,-43 -75,-90 -117,-147 -193,-210 -254,-210 -16,0 -42,-5 -58,-11 -15,-6 -72,-15 -125,-20 -53,-4 -106,-12 -117,-18 -11,-6 -48,-11 -83,-11 -36,-1 -74,-7 -88,-15 -14,-8 -53,-14 -90,-15 -36,0 -90,-7 -120,-15 -30,-8 -76,-15 -101,-15 -26,0 -66,-7 -89,-15 -23,-8 -68,-15 -99,-15 -31,-1 -74,-7 -96,-15 -22,-8 -67,-15 -100,-15 -37,0 -68,-6 -79,-15 -12,-9 -42,-15 -75,-15 -33,-1 -64,-7 -75,-15 -11,-8 -36,-15 -57,-15 -20,0 -50,-7 -65,-15 -16,-8 -43,-15 -60,-15 -16,0 -39,-7 -50,-15 -10,-8 -33,-15 -50,-15 -17,0 -37,-7 -44,-15 -7,-8 -20,-15 -29,-15 -9,0 -29,-7 -45,-15 -15,-8 -34,-15 -40,-15 -6,0 -35,-22 -64,-50 l -52,-50 v -69 c 0,-49 4,-72 15,-81 8,-7 15,-20 15,-30 0,-29 65,-42 138,-27 34,7 67,18 74,25 7,7 20,12 29,12 9,0 30,7 45,15 16,8 39,15 52,15 12,0 22,4 22,9 0,5 10,12 23,16 12,3 31,10 42,15 33,14 117,38 159,46 22,4 51,13 65,20 14,8 36,14 48,14 12,0 24,4 27,9 4,5 30,12 59,16 28,4 57,11 62,15 6,4 34,11 62,15 29,4 55,10 58,15 3,4 29,11 60,15 30,3 57,11 60,16 4,5 14,9 24,9 10,0 41,6 67,14 27,8 83,21 124,29 41,9 100,21 130,27 50,10 92,17 218,36 41,6 42,6 42,-24 0,-23 -16,-46 -72,-105 -40,-42 -84,-91 -98,-109 -68,-89 -391,-416 -441,-447 -14,-9 -73,-59 -130,-112 -57,-53 -126,-114 -154,-134 -27,-21 -52,-41 -55,-45 -3,-4 -23,-18 -45,-32 -22,-14 -51,-36 -65,-50 -14,-13 -52,-44 -85,-68 -33,-24 -73,-56 -89,-72 -17,-15 -34,-28 -39,-28 -5,0 -30,-18 -55,-41 -26,-23 -56,-45 -67,-50 -28,-12 -112,-74 -158,-115 -21,-19 -44,-34 -51,-34 -6,0 -26,-14 -44,-30 -18,-17 -35,-30 -37,-30 -2,0 -24,-13 -48,-30 -25,-16 -48,-30 -52,-30 -4,0 -24,-13 -45,-30 -21,-16 -41,-30 -45,-30 -4,0 -24,-13 -45,-30 -21,-16 -41,-30 -44,-30 -3,0 -35,-20 -72,-45 -36,-25 -71,-45 -78,-45 -7,0 -26,-13 -42,-30 -16,-16 -35,-30 -43,-30 -7,0 -30,-13 -50,-28 -20,-16 -43,-32 -51,-35 -8,-4 -37,-21 -65,-37 -27,-17 -75,-42 -105,-57 -30,-15 -61,-33 -68,-40 -7,-7 -18,-13 -23,-13 -5,0 -31,-14 -57,-30 -27,-17 -55,-30 -61,-30 -7,0 -27,-11 -45,-25 -18,-14 -36,-25 -41,-25 -4,0 -26,-9 -49,-19 -48,-23 -156,-72 -206,-94 -19,-8 -57,-22 -85,-31 -27,-9 -59,-20 -70,-25 -11,-4 -47,-16 -80,-26 -33,-10 -73,-24 -90,-31 -16,-6 -50,-17 -75,-24 -25,-6 -59,-15 -77,-19 -22,-6 -38,-5 -50,4 -17,13 -17,15 0,43 9,17 17,35 17,42 0,6 6,18 13,25 23,27 33,40 64,91 17,27 34,61 38,75 4,13 24,49 44,79 50,78 59,92 70,118 6,12 14,22 18,22 5,0 16,15 26,33 10,18 38,55 63,81 24,26 44,52 44,57 0,5 4,9 9,9 5,0 12,8 16,19 3,10 26,40 50,66 25,26 45,50 45,54 0,11 47,66 120,141 36,36 110,118 165,180 55,63 127,143 160,178 33,35 62,69 64,76 2,6 15,25 28,42 12,17 23,34 23,37 0,17 -39,5 -60,-18 -13,-14 -33,-25 -44,-25 -12,0 -35,-13 -52,-29 -16,-16 -40,-32 -52,-35 -37,-12 -418,-399 -538,-546 -20,-25 -55,-64 -78,-86 -60,-61 -96,-103 -96,-112 0,-5 -20,-30 -45,-56 -25,-27 -59,-67 -77,-89 -18,-23 -59,-73 -93,-112 -34,-38 -76,-91 -95,-117 -18,-27 -37,-48 -42,-48 -4,0 -8,-5 -8,-11 0,-6 -13,-28 -30,-49 -17,-21 -30,-41 -30,-44 0,-3 -13,-28 -30,-54 -23,-38 -30,-61 -30,-101 0,-51 9,-75 62,-157 39,-60 172,-154 218,-154 12,0 32,-7 45,-16 20,-13 45,-16 130,-12 64,2 109,8 117,16 6,6 28,12 48,12 19,0 48,7 64,15 15,8 40,15 55,15 15,0 36,7 47,15 10,8 27,15 37,15 11,0 31,6 45,14 15,7 59,28 97,46 39,17 77,36 86,40 82,42 120,64 125,71 3,5 13,9 23,9 10,0 24,7 31,15 7,8 20,15 30,15 10,0 23,7 30,15 7,8 20,15 30,15 10,0 20,6 23,13 2,7 22,21 43,32 22,11 55,32 75,48 20,15 42,27 47,27 6,0 15,6 19,13 4,6 24,21 43,31 19,11 48,32 64,48 17,15 35,28 41,28 6,0 26,14 44,31 19,17 50,41 70,54 20,13 53,40 74,59 21,20 41,36 44,36 7,0 78,57 118,93 16,16 53,46 81,67 28,21 64,51 80,67 16,15 64,57 108,93 43,36 97,83 120,105 23,22 65,60 92,84 129,115 203,183 287,263 51,48 97,88 102,88 6,0 47,35 92,77 44,43 116,107 159,143 84,68 1004,984 1004,998 0,5 23,28 51,51 70,60 121,70 354,71 200,0 230,-3 239,-26 6,-15 -29,-99 -44,-109 -6,-3 -10,-16 -10,-28 0,-12 -7,-31 -15,-41 -8,-11 -15,-29 -15,-40 0,-12 -7,-30 -15,-40 -8,-11 -15,-31 -15,-45 0,-14 -7,-35 -15,-45 -8,-11 -15,-29 -15,-41 0,-12 -7,-30 -15,-41 -8,-10 -15,-27 -15,-36 0,-9 -8,-31 -17,-50 -9,-18 -22,-45 -30,-60 -7,-14 -13,-35 -13,-46 0,-11 -8,-35 -17,-54 -9,-18 -22,-45 -30,-60 -7,-14 -13,-37 -13,-50 0,-12 -7,-32 -15,-42 -8,-11 -15,-29 -15,-41 0,-11 -6,-29 -14,-40 -7,-11 -16,-33 -18,-50 -6,-31 -25,-88 -39,-117 -5,-9 -12,-36 -15,-59 -4,-24 -13,-54 -21,-68 -7,-14 -13,-39 -13,-56 0,-16 -7,-48 -15,-70 -22,-61 -20,-237 3,-303 22,-61 121,-177 161,-187 14,-4 28,-10 31,-15 3,-4 22,-10 43,-13 27,-3 44,0 62,15 28,22 32,45 10,74 -20,26 -20,169 0,204 8,14 15,36 15,50 0,14 7,34 15,44 8,11 15,31 15,45 0,14 7,35 15,45 8,11 15,32 15,47 0,15 4,30 9,33 5,3 12,22 16,42 3,20 10,44 15,53 5,9 19,49 31,90 12,40 28,85 35,100 8,14 14,35 14,46 0,12 4,25 8,30 5,6 19,42 31,80 12,39 28,84 36,100 7,17 20,53 30,80 10,28 24,64 31,82 8,17 14,36 14,41 0,6 8,25 17,44 29,59 33,68 33,78 0,6 9,32 21,58 11,26 25,58 30,72 6,14 17,38 25,53 8,16 14,33 14,39 0,22 116,262 133,275 22,18 198,36 390,40 l 187,4 v -35 c 0,-29 -10,-46 -52,-91 -28,-31 -59,-68 -68,-83 -9,-15 -24,-33 -33,-41 -10,-7 -33,-40 -53,-72 -19,-33 -40,-59 -45,-59 -5,0 -9,-6 -9,-14 0,-7 -9,-24 -19,-37 -10,-14 -27,-39 -37,-56 -11,-17 -36,-59 -56,-93 -21,-34 -38,-66 -38,-72 0,-5 -6,-24 -14,-41 -27,-62 -46,-136 -46,-183 0,-53 36,-174 71,-237 5,-10 26,-48 46,-85 45,-84 135,-203 199,-263 58,-53 129,-81 177,-68 18,4 44,10 58,13 14,3 42,17 63,31 20,14 43,25 51,25 8,0 18,6 22,13 4,7 26,24 48,37 22,13 51,35 65,47 14,13 30,23 35,23 6,0 31,19 56,43 49,48 124,107 133,107 4,0 19,13 34,28 15,15 52,46 82,69 30,22 78,61 105,87 28,25 59,49 69,52 11,4 31,19 45,34 14,15 45,39 68,54 24,14 71,52 105,85 93,87 124,111 142,111 21,0 20,-7 -9,-68 -14,-29 -25,-54 -25,-57 0,-3 -16,-37 -35,-76 -19,-39 -35,-79 -35,-90 0,-10 -4,-20 -9,-24 -6,-3 -13,-27 -16,-53 -4,-26 -11,-64 -17,-86 -14,-55 15,-156 63,-223 38,-51 117,-113 145,-113 7,0 14,-4 14,-10 0,-5 15,-13 33,-19 17,-5 46,-15 64,-22 28,-12 37,-11 76,9 63,31 297,264 384,383 18,24 43,56 55,71 13,15 44,53 70,85 26,33 73,86 105,118 32,33 73,80 92,105 19,24 45,56 57,69 13,14 41,49 61,78 47,65 77,72 70,16 -2,-21 -12,-63 -21,-93 -38,-124 -42,-260 -10,-348 20,-53 69,-133 90,-145 8,-4 14,-16 14,-26 0,-11 22,-32 56,-55 45,-29 66,-36 105,-36 70,0 154,47 248,140 69,67 245,262 261,287 9,15 37,48 62,73 24,25 66,74 93,110 27,36 61,77 77,92 15,15 28,31 28,36 0,12 54,62 68,62 25,0 132,-82 132,-101 0,-24 -38,-67 -120,-136 -95,-80 -170,-152 -195,-189 -12,-18 -41,-52 -63,-76 -23,-24 -42,-47 -42,-53 0,-5 -14,-25 -30,-44 -17,-18 -30,-38 -30,-42 0,-5 -15,-32 -32,-61 -30,-49 -33,-60 -32,-133 1,-104 20,-141 142,-278 84,-94 117,-111 202,-105 36,3 74,10 85,15 22,11 71,29 123,44 17,6 32,14 32,19 0,6 9,10 19,10 11,0 26,7 35,15 8,8 20,15 26,15 25,0 210,160 210,182 0,4 13,21 29,37 30,31 78,123 108,206 14,41 17,79 15,209 -1,92 -6,164 -12,170 -5,5 -10,18 -10,27 0,10 -16,45 -35,78 -47,80 -46,110 6,159 22,22 52,45 67,53 15,8 40,26 55,41 16,16 33,28 39,28 6,0 41,20 78,45 37,25 72,45 77,45 5,0 25,11 44,25 19,14 57,37 84,51 28,13 57,29 65,34 8,5 42,21 75,35 33,15 77,35 98,46 21,10 49,19 63,19 23,0 24,-2 18,-36 -4,-20 -26,-77 -50,-126 -24,-49 -44,-94 -44,-101 0,-7 -7,-21 -15,-31 -8,-11 -15,-28 -15,-37 0,-10 -8,-32 -17,-51 -29,-58 -31,-65 -38,-101 -4,-20 -13,-41 -21,-48 -8,-6 -14,-22 -14,-35 0,-13 -4,-24 -10,-24 -5,0 -10,-8 -10,-17 0,-10 -6,-30 -14,-45 -8,-15 -17,-40 -21,-57 -4,-17 -11,-31 -16,-31 -5,0 -9,-7 -9,-15 0,-19 -27,-99 -52,-155 -58,-127 -81,-211 -76,-274 4,-52 8,-58 68,-116 110,-104 173,-124 226,-70 16,16 34,30 41,30 6,0 112,99 235,221 123,122 246,239 273,261 28,22 110,97 183,166 74,70 152,137 174,150 41,22 62,22 40,0 -7,-7 -12,-24 -12,-39 0,-15 -7,-29 -15,-33 -8,-3 -15,-16 -15,-28 0,-13 -7,-36 -15,-52 -8,-15 -15,-36 -15,-45 0,-9 -7,-25 -15,-35 -8,-11 -15,-30 -15,-42 0,-12 -7,-27 -15,-34 -8,-7 -15,-26 -15,-42 0,-16 -7,-43 -16,-59 -19,-37 -15,-165 7,-220 30,-74 133,-168 187,-169 22,0 118,47 152,75 8,6 22,14 30,17 24,9 258,213 345,302 45,44 127,123 183,175 87,80 106,92 127,87 21,-5 25,-12 25,-42 0,-125 245,-497 372,-564 47,-25 178,-28 202,-5 8,8 20,15 26,15 16,0 66,28 111,63 20,15 41,27 46,27 6,0 18,10 29,21 10,12 42,36 69,54 28,18 66,48 85,67 19,19 64,56 99,83 35,26 76,61 93,76 16,16 34,29 41,29 7,0 30,17 52,38 22,21 51,44 63,51 26,14 50,33 120,99 53,49 82,55 82,17 0,-15 -7,-39 -15,-56 -23,-44 -24,-263 -2,-309 9,-18 17,-38 17,-45 0,-7 9,-22 20,-35 11,-13 20,-29 20,-36 0,-20 114,-133 156,-155 50,-25 56,-25 128,13 47,25 112,83 291,261 127,126 250,242 275,258 47,31 210,177 291,263 44,44 69,53 69,23 0,-7 -13,-28 -30,-47 -16,-19 -29,-41 -30,-48 0,-20 -30,-72 -56,-101 -14,-14 -27,-37 -31,-51 -3,-14 -9,-30 -14,-35 -4,-6 -13,-31 -18,-55 -12,-54 6,-218 26,-238 7,-7 13,-21 13,-31 0,-10 14,-43 31,-74 29,-55 80,-104 146,-140 38,-21 122,-22 149,-2 10,8 27,15 36,15 9,0 21,6 25,13 4,6 31,30 58,52 60,47 52,39 145,144 41,47 92,103 112,125 21,23 38,44 38,48 0,4 20,29 45,56 25,28 60,70 78,95 18,25 51,65 73,89 22,24 48,57 59,74 11,17 39,53 62,80 24,27 65,81 93,119 27,39 60,83 72,99 13,15 27,38 33,49 5,12 20,31 32,43 23,23 31,54 15,54 -15,0 -223,-180 -346,-299 -127,-123 -155,-149 -238,-221 -28,-25 -121,-114 -206,-198 -85,-84 -160,-151 -166,-149 -18,6 -19,35 -2,69 9,17 16,37 16,43 0,7 7,18 15,25 8,7 15,23 15,36 0,13 6,27 13,31 16,10 72,128 83,176 3,15 10,27 14,27 4,0 11,8 14,18 9,23 31,61 45,75 6,6 11,18 11,28 0,9 11,32 24,52 13,19 27,46 31,58 4,13 20,52 36,87 16,34 29,66 29,71 0,5 6,22 14,38 25,49 39,110 32,140 -4,15 -10,42 -13,58 -3,17 -11,37 -18,45 -7,8 -16,25 -19,37 -10,33 -123,133 -150,133 -13,0 -40,-16 -61,-35 l -37,-36 -24,48 c -13,26 -24,53 -24,60 0,10 -6,24 -48,107 -39,76 -98,103 -216,99 -48,-1 -93,-6 -100,-11 -6,-5 -30,-12 -54,-16 -24,-3 -51,-10 -60,-15 -9,-5 -53,-26 -97,-47 -44,-20 -82,-41 -85,-45 -3,-4 -23,-16 -46,-28 -22,-12 -51,-33 -64,-46 -13,-14 -29,-25 -36,-25 -7,0 -32,-18 -56,-41 -23,-23 -72,-65 -108,-94 -71,-58 -121,-109 -222,-230 -69,-83 -164,-172 -252,-238 -27,-20 -52,-41 -55,-45 -4,-4 -22,-16 -41,-26 -19,-11 -54,-37 -77,-59 -22,-22 -50,-44 -62,-51 -11,-6 -59,-38 -106,-71 -48,-33 -94,-65 -103,-70 -9,-6 -42,-27 -73,-47 -32,-20 -81,-48 -110,-63 -30,-14 -67,-34 -84,-44 -16,-9 -59,-28 -95,-41 -36,-13 -69,-27 -75,-30 -5,-4 -26,-11 -45,-15 -19,-4 -41,-11 -50,-16 -26,-13 -103,-31 -157,-36 -86,-8 -131,44 -88,101 8,11 15,27 15,37 0,9 7,22 15,29 8,7 15,18 15,26 0,7 20,42 45,77 25,36 45,70 45,77 0,6 6,18 13,25 22,26 32,40 45,65 25,51 54,96 81,125 15,17 39,48 52,70 13,22 36,52 51,67 16,15 28,31 28,36 0,5 23,35 51,68 28,32 72,84 97,114 102,119 281,292 297,286 12,-4 13,-10 6,-24 -5,-10 -20,-47 -32,-83 -12,-35 -32,-86 -45,-112 -12,-26 -26,-61 -29,-77 -4,-17 -11,-32 -16,-35 -5,-4 -9,-18 -9,-32 0,-14 -5,-43 -11,-63 -15,-48 -5,-90 20,-90 19,0 59,46 181,205 30,39 63,79 73,89 9,10 22,27 29,39 6,12 44,66 85,119 40,53 73,101 73,106 0,5 13,22 30,38 16,16 30,34 30,40 0,6 20,42 45,80 36,54 45,77 45,111 0,75 -67,173 -119,173 -30,0 -71,-38 -71,-66 0,-7 -3,-14 -8,-16 -4,-1 -25,-24 -46,-51 -45,-56 -76,-62 -103,-19 -10,15 -34,42 -53,59 -57,54 -90,47 -265,-54 -22,-12 -49,-27 -60,-32 -78,-35 -441,-379 -549,-519 -45,-59 -85,-99 -285,-287 -41,-38 -84,-80 -94,-92 -10,-13 -24,-23 -30,-23 -7,0 -35,-24 -62,-52 -54,-56 -165,-161 -259,-243 -32,-27 -92,-82 -134,-122 -42,-39 -97,-89 -121,-110 -24,-21 -51,-46 -60,-57 -22,-25 -87,-66 -106,-66 -19,0 -19,20 0,46 8,10 15,28 15,39 0,11 11,37 25,57 14,20 25,44 25,52 0,8 6,21 13,28 6,7 22,33 35,58 28,55 58,106 83,142 11,15 19,34 19,42 0,8 6,21 13,28 6,7 27,42 45,78 91,176 105,200 113,206 5,3 9,13 9,23 0,10 7,24 15,31 8,7 15,20 15,30 0,10 7,20 15,24 8,3 15,14 15,24 0,10 11,39 25,63 14,24 27,51 31,59 11,28 32,75 63,140 35,74 38,92 16,110 -8,7 -15,20 -15,30 0,10 -7,23 -15,30 -8,7 -15,19 -15,27 0,23 -51,63 -80,63 -51,0 -188,-161 -290,-342 -99,-176 -94,-170 -340,-379 -85,-72 -178,-151 -207,-176 -28,-24 -72,-58 -97,-75 -26,-16 -55,-41 -65,-54 -10,-13 -22,-24 -26,-24 -4,0 -24,-13 -44,-28 -20,-15 -48,-34 -62,-41 -15,-7 -55,-39 -90,-70 -85,-75 -145,-115 -164,-107 -17,6 -21,51 -5,61 5,3 10,14 10,23 0,9 22,62 49,117 27,55 68,141 90,190 23,50 46,97 52,105 5,8 11,20 13,25 10,25 20,44 51,100 19,33 57,107 86,165 29,58 58,111 66,118 7,7 13,18 13,23 0,5 17,37 38,72 20,34 48,85 62,112 14,28 28,52 31,55 3,3 12,17 20,31 46,87 62,115 69,119 3,3 17,28 30,55 13,28 30,57 36,65 7,8 23,35 36,60 14,25 40,72 58,105 18,33 48,89 67,124 18,36 36,67 41,70 13,10 72,110 72,124 0,7 9,20 20,30 11,9 20,24 20,32 0,8 4,15 8,15 5,0 18,19 30,43 12,23 28,50 36,60 17,22 114,57 160,57 19,0 47,5 62,11 56,21 473,53 492,37 18,-15 15,-42 -8,-71 -11,-14 -20,-32 -20,-40 0,-8 -7,-20 -15,-27 -8,-7 -15,-20 -15,-30 0,-10 -7,-31 -15,-46 -8,-16 -15,-36 -15,-45 0,-8 -6,-21 -12,-27 -8,-8 -13,-45 -13,-102 0,-91 12,-120 27,-64 8,33 140,164 164,164 6,0 17,7 24,15 7,8 18,15 25,15 14,0 106,59 131,85 18,17 21,57 10,127 -6,40 -4,50 13,67 13,13 34,21 55,21 19,0 37,4 40,9 7,10 125,24 194,21 30,0 59,4 67,10 9,8 15,8 20,0 8,-13 92,-13 131,-1 16,6 94,12 174,15 80,4 160,10 179,14 32,7 33,8 17,25 -13,12 -35,17 -79,18 -34,0 -78,2 -97,3 -19,2 -67,-1 -106,-7 -48,-6 -78,-6 -90,1 -13,7 -26,6 -44,-3 -19,-10 -80,-12 -260,-9 -129,2 -255,4 -280,4 -75,1 -439,-19 -540,-29 -52,-5 -121,-10 -152,-10 -85,-1 -86,17 -7,148 11,19 36,66 56,105 19,39 39,78 44,86 5,8 12,22 15,30 3,8 13,32 22,53 23,56 23,198 0,224 -10,11 -18,26 -18,34 0,8 -21,38 -46,67 -56,64 -86,68 -136,19 -39,-38 -79,-85 -93,-109 -5,-9 -36,-55 -67,-101 -32,-46 -58,-89 -58,-96 0,-6 -4,-11 -9,-11 -5,0 -12,-8 -15,-17 -7,-19 -13,-29 -58,-99 -14,-23 -35,-56 -45,-75 -10,-19 -37,-61 -59,-94 -22,-34 -43,-67 -48,-75 -50,-102 -95,-140 -176,-151 -25,-4 -71,-12 -102,-18 -136,-26 -178,-33 -258,-43 -47,-5 -98,-12 -115,-14 -16,-2 -84,-8 -150,-13 -66,-5 -136,-14 -155,-20 -19,-6 -62,-11 -95,-11 -33,0 -78,-7 -100,-15 -22,-8 -55,-14 -74,-15 -32,0 -106,-18 -176,-42 -16,-5 -41,-12 -53,-15 -13,-3 -39,-20 -58,-37 -29,-27 -35,-41 -47,-111 -9,-55 -11,-89 -4,-108 12,-35 -6,-50 -80,-67 -69,-15 -227,-101 -268,-146 -5,-6 -39,-33 -74,-59 -75,-57 -222,-203 -296,-295 -29,-36 -64,-76 -79,-89 -14,-14 -26,-35 -26,-48 0,-13 -4,-23 -9,-23 -4,0 -18,-29 -30,-65 -22,-65 -22,-67 -5,-123 23,-74 70,-160 107,-195 46,-44 39,-67 -41,-150 -39,-39 -81,-83 -94,-97 -23,-25 -131,-118 -203,-175 -21,-16 -51,-42 -67,-58 -16,-15 -31,-27 -34,-27 -4,0 -40,-27 -81,-60 -45,-35 -85,-60 -99,-60 -22,0 -24,4 -24,48 0,26 4,52 8,58 9,9 55,130 67,174 4,14 13,39 20,55 7,17 22,55 35,85 37,95 103,235 155,329 19,35 35,68 35,72 0,4 13,27 28,51 30,45 52,109 52,148 0,25 -17,85 -31,110 -4,8 -18,35 -31,60 -51,102 -102,105 -195,12 -18,-18 -33,-37 -33,-41 0,-5 -19,-30 -41,-55 -41,-45 -51,-59 -131,-179 -21,-31 -44,-60 -52,-64 -7,-4 -26,-26 -40,-47 -59,-88 -484,-541 -624,-666 -40,-36 -108,-100 -150,-143 -75,-77 -128,-115 -140,-102 -3,3 -1,15 6,25 7,11 12,28 12,39 0,10 7,24 15,31 8,7 15,19 15,26 0,12 21,58 80,174 10,19 32,60 50,90 17,30 37,69 45,87 8,17 19,34 25,38 5,3 10,14 10,24 0,10 7,24 15,31 8,7 15,21 15,31 0,11 4,19 9,19 5,0 14,12 20,28 6,15 16,36 23,47 87,134 148,297 148,393 0,87 -31,151 -110,235 -39,41 -62,57 -80,57 -29,0 -64,-32 -74,-67 -4,-11 -13,-27 -21,-33 -8,-7 -15,-21 -15,-31 0,-11 -4,-19 -9,-19 -5,0 -13,-10 -17,-22 -4,-13 -19,-39 -34,-58 -15,-19 -30,-42 -33,-50 -4,-8 -21,-37 -38,-65 -16,-27 -35,-62 -40,-77 -6,-16 -15,-28 -19,-28 -4,0 -13,-12 -19,-27 -10,-26 -20,-44 -46,-81 -16,-23 -89,-94 -130,-127 -21,-16 -70,-58 -109,-92 -38,-35 -74,-63 -78,-63 -5,0 -19,-11 -31,-24 -21,-23 -233,-186 -242,-186 -2,0 -16,-11 -31,-25 -15,-14 -38,-31 -50,-38 -13,-7 -57,-36 -99,-65 -41,-28 -79,-52 -83,-52 -4,0 -22,-14 -41,-30 -18,-17 -42,-30 -52,-30 -10,0 -20,-4 -23,-9 -3,-5 -24,-18 -45,-29 -22,-12 -48,-26 -58,-31 -10,-6 -29,-16 -43,-21 -14,-6 -38,-19 -55,-29 -16,-11 -36,-20 -43,-20 -8,-1 -28,-7 -45,-14 -60,-25 -135,-47 -183,-53 -27,-4 -54,-10 -59,-15 -16,-12 -104,11 -115,30 -12,24 -1,91 16,98 8,3 14,16 14,29 0,12 6,27 13,31 6,4 26,35 43,68 58,112 69,130 82,138 6,4 12,13 12,20 0,15 82,140 121,184 16,19 29,38 29,43 0,5 15,25 33,44 42,44 68,76 88,106 9,14 34,44 55,66 22,23 57,63 79,90 61,73 218,225 230,221 5,-2 12,-14 14,-28 3,-22 -4,-41 -45,-122 -8,-16 -14,-37 -14,-47 0,-9 -7,-23 -15,-30 -8,-7 -15,-23 -15,-36 0,-13 -7,-41 -16,-63 -22,-55 -16,-145 10,-149 22,-5 71,44 130,131 21,31 42,57 46,57 5,0 21,20 37,44 15,25 63,90 106,145 42,55 77,104 77,109 0,5 9,17 21,27 22,21 99,133 99,145 0,5 6,15 13,22 50,54 70,186 33,226 -9,10 -16,25 -16,33 -1,15 -38,46 -61,49 -36,5 -50,-4 -92,-62 -93,-130 -104,-133 -192,-49 -52,51 -65,58 -91,54 -34,-5 -153,-61 -172,-80 -7,-7 -17,-13 -22,-13 -9,0 -183,-115 -219,-145 -13,-11 -49,-41 -79,-67 -47,-41 -61,-48 -97,-48 -24,0 -62,7 -85,15 -23,8 -67,15 -97,15 -30,0 -62,4 -72,9 -9,5 -88,13 -174,17 l -157,7 v 29 c 0,16 14,55 30,88 17,33 30,66 30,73 0,8 7,20 15,27 8,7 15,19 15,28 0,21 191,402 201,402 5,0 9,8 9,19 0,10 7,24 15,31 8,7 15,18 15,25 0,6 14,31 30,53 17,23 30,49 30,57 0,8 4,15 9,15 5,0 14,12 20,28 14,35 53,102 101,172 21,31 40,66 44,78 4,12 11,22 16,22 5,0 12,10 16,22 3,12 19,39 35,61 16,22 29,44 29,49 0,6 20,40 45,77 25,37 45,72 45,79 0,7 4,12 9,12 5,0 13,10 17,23 4,12 18,38 33,57 29,39 40,57 71,114 11,21 27,45 35,53 8,8 15,23 15,34 0,10 4,19 10,19 5,0 19,19 30,43 11,23 32,62 46,87 14,26 25,62 26,86 0,36 -5,54 -34,104 -4,8 -14,26 -21,40 -30,61 -108,120 -158,120 -15,0 -66,-46 -161,-142 z m 5142,-1239 c 0,-26 -5,-42 -15,-45 -8,-4 -15,-14 -15,-23 -1,-9 -12,-34 -25,-56 -13,-22 -41,-69 -60,-105 -20,-36 -40,-72 -45,-80 -5,-8 -19,-35 -31,-60 -12,-25 -25,-52 -30,-60 -4,-8 -19,-35 -32,-60 -14,-25 -39,-70 -55,-100 -17,-30 -51,-93 -74,-140 -44,-88 -125,-180 -158,-180 -10,0 -23,-6 -29,-14 -6,-8 -22,-16 -34,-19 -40,-10 -97,-33 -109,-45 -7,-7 -18,-12 -24,-12 -14,0 -144,-66 -158,-81 -6,-5 -18,-9 -27,-9 -9,0 -22,-7 -29,-15 -7,-8 -18,-15 -26,-15 -7,0 -30,-12 -51,-26 -21,-14 -48,-30 -60,-35 -13,-5 -23,-13 -23,-19 0,-5 -8,-10 -18,-10 -10,0 -36,-13 -58,-30 -21,-16 -43,-30 -48,-30 -4,0 -28,-13 -53,-30 -24,-16 -49,-30 -56,-30 -7,0 -21,-7 -31,-15 -11,-8 -28,-15 -38,-15 -10,0 -18,-4 -18,-9 0,-5 -12,-14 -27,-20 -16,-7 -44,-20 -63,-31 -67,-36 -101,-24 -202,73 -32,30 -58,62 -58,71 0,8 8,29 19,47 21,34 18,63 -10,83 -18,12 -18,14 9,52 38,52 267,264 285,264 3,0 25,19 49,43 24,23 58,50 76,60 l 32,18 v -40 c 0,-23 -3,-41 -8,-41 -4,0 -24,-35 -45,-77 -35,-73 -37,-82 -30,-138 l 8,-60 37,-3 c 39,-3 34,-7 131,119 6,9 29,36 49,60 156,186 198,247 204,291 8,66 -6,102 -42,106 -61,6 -107,39 -147,104 -32,52 -25,60 63,72 57,8 143,27 175,38 17,6 45,13 63,15 17,3 32,9 32,13 0,5 21,12 48,15 26,4 61,13 79,21 17,8 42,14 55,14 13,0 38,13 56,29 26,24 32,38 32,70 0,39 1,40 38,46 20,4 54,13 75,21 20,8 50,14 65,14 15,0 32,4 38,9 5,5 41,15 79,21 279,44 265,44 265,-11 z M 7999,4703 c -23,-43 -64,-121 -92,-173 -27,-52 -58,-106 -67,-120 -9,-14 -36,-67 -60,-117 -25,-51 -48,-93 -52,-93 -5,0 -8,-10 -8,-23 0,-13 -7,-32 -15,-43 -8,-10 -15,-27 -15,-36 0,-10 -12,-31 -27,-48 l -28,-30 -168,-1 c -92,-1 -171,1 -174,4 -16,17 19,65 138,187 72,74 137,146 144,160 17,32 333,341 405,397 70,55 75,39 19,-64 z m 9903,-864 c 43,-11 73,-56 64,-94 -7,-28 -145,-168 -201,-203 -22,-14 -57,-40 -78,-58 -20,-19 -43,-34 -50,-34 -7,0 -26,-13 -42,-30 -16,-16 -34,-30 -40,-30 -7,0 -32,-17 -56,-38 -24,-21 -62,-49 -84,-62 -22,-12 -51,-34 -65,-47 -14,-13 -56,-46 -95,-73 -38,-27 -77,-55 -85,-62 -18,-16 -87,-55 -122,-71 -16,-6 -28,-15 -28,-19 0,-4 -11,-8 -25,-8 -35,0 -33,39 5,92 17,22 30,45 30,51 0,15 77,109 165,202 44,46 109,118 144,159 36,42 69,76 74,76 4,0 43,34 85,75 42,42 96,85 120,96 23,11 42,24 42,27 0,11 147,58 185,61 11,0 37,-4 57,-10 z m -5436,-681 c 47,-24 84,-73 84,-112 0,-15 -10,-40 -22,-57 -32,-43 -190,-158 -273,-199 -38,-19 -71,-38 -73,-42 -2,-5 -12,-8 -22,-8 -9,0 -23,-7 -30,-15 -7,-8 -21,-15 -31,-15 -9,0 -24,-7 -33,-15 -8,-8 -21,-15 -28,-15 -7,0 -26,-7 -41,-15 -40,-21 -93,-29 -102,-16 -14,23 64,140 189,285 77,90 214,218 259,243 27,14 70,8 123,-19 z"
         id="path4"
         style="fill:url(#linearGradient1);fill-opacity:1;stroke:#000000;stroke-opacity:1" /><path
         d="m 11630,5585 c -7,-8 -20,-15 -29,-15 -9,0 -38,-21 -66,-45 -27,-25 -55,-45 -62,-45 -7,0 -25,-19 -41,-42 -17,-24 -53,-68 -81,-98 -27,-30 -50,-59 -51,-63 0,-5 -20,-35 -45,-67 -25,-32 -45,-61 -45,-64 0,-3 -20,-35 -45,-72 -25,-36 -45,-69 -45,-73 0,-5 -7,-14 -15,-21 -8,-7 -15,-20 -15,-30 0,-10 -7,-23 -15,-30 -8,-7 -15,-21 -15,-31 0,-9 -7,-24 -15,-33 -8,-8 -15,-23 -15,-33 0,-10 -7,-31 -15,-47 -20,-38 -20,-102 1,-110 28,-11 56,-6 91,15 39,24 133,115 133,129 0,4 13,19 29,32 15,13 30,29 32,36 5,13 151,173 193,211 15,14 82,79 148,144 66,64 126,117 132,117 6,0 31,18 55,40 61,54 61,88 2,142 -24,21 -50,38 -60,38 -9,0 -22,5 -28,11 -18,18 -98,22 -113,4 z"
         id="path5"
         style="fill:url(#linearGradient1);fill-opacity:1;stroke:#000000;stroke-opacity:1" /><path
         d="m 16398,5253 c -22,-6 -23,-29 -2,-37 34,-13 230,2 208,16 -7,5 -39,8 -73,9 -34,1 -64,6 -67,10 -5,9 -36,10 -66,2 z"
         id="path6"
         style="fill:url(#linearGradient1);fill-opacity:1;stroke:#000000;stroke-opacity:1" /></g></g></svg>
